<svg width="16" height="16" viewBox="0 0 16 16" xmlns="http://www.w3.org/2000/svg"><path fill="#212529" fill-rule="evenodd" clip-rule="evenodd" d="M13.3334 3.66666C13.3334 4.95533 12.2887 6 11 6C10.3257 6 9.7181 5.7139 9.29211 5.25646L5.88379 7.27067C5.95923 7.50012 6.00004 7.74529 6.00004 8C6.00004 8.25469 5.95923 8.49986 5.8838 8.72932L9.29224 10.7434C9.71822 10.286 10.3257 10 11 10C12.2887 10 13.3334 11.0447 13.3334 12.3333C13.3334 13.622 12.2887 14.6667 11 14.6667C9.71138 14.6667 8.66671 13.622 8.66671 12.3333C8.66671 12.0786 8.70752 11.8335 8.78296 11.604L5.37452 9.58992C4.94854 10.0473 4.34103 10.3333 3.66671 10.3333C2.37804 10.3333 1.33337 9.28866 1.33337 8C1.33337 6.71133 2.37804 5.66666 3.66671 5.66666C4.34102 5.66666 4.94853 5.9527 5.37452 6.41007L8.78295 4.39599L8.78321 4.39678C8.70761 4.1671 8.66671 3.92166 8.66671 3.66666C8.66671 2.378 9.71138 1.33333 11 1.33333C12.2887 1.33333 13.3334 2.378 13.3334 3.66666ZM12.3334 3.66666C12.3334 4.40304 11.7364 4.99999 11 4.99999C10.2637 4.99999 9.66671 4.40304 9.66671 3.66666C9.66671 2.93028 10.2637 2.33333 11 2.33333C11.7364 2.33333 12.3334 2.93028 12.3334 3.66666ZM3.66671 9.33333C4.40309 9.33333 5.00004 8.73637 5.00004 8C5.00004 7.26362 4.40309 6.66666 3.66671 6.66666C2.93033 6.66666 2.33337 7.26362 2.33337 8C2.33337 8.73637 2.93033 9.33333 3.66671 9.33333ZM12.3334 12.3333C12.3334 13.0697 11.7364 13.6667 11 13.6667C10.2637 13.6667 9.66671 13.0697 9.66671 12.3333C9.66671 11.5969 10.2637 11 11 11C11.7364 11 12.3334 11.5969 12.3334 12.3333Z"></path></svg>